<svg version="1.2" baseProfile="tiny-ps" xmlns="http://www.w3.org/2000/svg" viewBox="0 0 1024 1024" width="1024" height="1024"><title>Unicode_WTF_Smiley-svg</title><style>tspan { white-space:pre }.shp0 { fill: #000000 } </style><g ><path fill-rule="evenodd" class="shp0" d="M305.07 269.76C308.29 269.78 311.53 269.8 314.77 269.8C326.7 278.63 336.49 290.84 340.5 305.3C347.95 331.82 341.53 363.52 319.64 381.55C303.02 395.99 279.98 398.7 258.77 397.95C286.55 409.81 313.09 427.82 328.43 454.46C345.11 483.05 346.67 518.29 338.9 549.89C328.73 589.89 296.06 622.76 256.55 634.22C228.76 642.2 197.99 642.5 171.07 631.13C149.89 622.12 130.13 608.77 115.46 590.89C93.59 563.69 88.34 526.4 93.76 492.71C98.52 462.81 116.5 435.99 140.89 418.37C151.79 410.18 163.88 403.71 176.21 397.95C148.05 397.93 119.89 397.95 91.73 397.93C91.73 385.47 91.73 372.99 91.73 360.53C150.78 360.51 209.81 360.58 268.84 360.51C284.52 360.38 301.53 358.66 314.2 348.46C327.51 337.73 330.9 318.98 328.6 302.83C326.38 288.81 316.44 277.55 305.07 269.76ZM192.94 400.21C183.13 402.09 173.53 405.29 164.76 410.11C146.69 419.93 133.57 436.86 124.52 455.02C110.89 482.67 111.77 516.76 126.25 543.91C135.91 561.75 150.72 576.87 168.45 586.79C198.29 603.22 236.18 601.98 266.03 586.26C286.61 575.7 305.15 559.15 313.13 536.92C321.92 512.3 323.2 484.42 314.77 459.54C306.62 435.67 285.99 418.52 263.77 408.11C241.86 397.63 216.62 395.86 192.94 400.21Z" /><path fill-rule="evenodd" class="shp0" d="M893.89 269.76C897.11 269.8 900.33 269.8 903.57 269.8C915.5 278.63 925.29 290.84 929.3 305.3C936.58 331.33 930.62 362.33 909.63 380.52C892.95 395.78 869.27 398.76 847.57 397.95C874.86 409.6 900.93 427.14 916.39 453.08C933.85 481.88 935.62 517.8 927.68 549.91C917.53 589.89 884.84 622.76 845.38 634.22C816.98 642.39 785.51 642.47 758.19 630.42C736.77 620.95 716.69 607.15 702.36 588.44C682.03 561.41 677.35 525.42 682.56 492.71C687.34 462.83 705.26 436.03 729.64 418.41C740.57 410.2 752.66 403.69 765.03 397.95C736.87 397.93 708.71 397.95 680.53 397.93C680.53 385.47 680.53 372.99 680.53 360.53C739.52 360.51 798.51 360.58 857.49 360.51C873.69 360.41 891.43 358.55 904.17 347.46C916.03 337.09 919.17 320.11 917.76 305.07C916.18 290.15 905.9 277.91 893.89 269.76ZM781.89 400.19C770.5 402.35 759.38 406.29 749.57 412.48C733.89 422.25 722.35 437.46 713.98 453.67C699.93 481.13 700.31 515.16 714.33 542.53C723.97 561.02 739.11 576.64 757.31 586.84C787.16 603.24 825.07 601.98 854.93 586.2C875.43 575.66 893.91 559.17 901.89 537.05C910.72 512.38 912.02 484.44 903.55 459.5C895.21 435.11 873.9 417.77 851.07 407.42C829.57 397.55 804.99 395.99 781.89 400.19Z" /><path class="shp0" d="M209.77 474.71C219.09 472.11 230.53 474.13 236.65 482.18C246.59 493.38 243.86 513.51 230.53 520.85C219.35 528.15 201.86 525.21 195.65 512.73C187.16 499.24 194.18 479.04 209.77 474.71Z" /><path class="shp0" d="M798.78 474.65C808.06 472.15 819.35 474.2 825.43 482.13C835.03 492.97 832.92 512.26 820.52 520.09C812.1 526.08 800 526.36 791.38 520.66C782.19 513.88 778.45 500.84 782.38 490.15C785.07 482.84 791.27 476.84 798.78 474.65Z" /><path class="shp0" d="M369.07 729.6C463.64 729.6 558.23 729.6 652.8 729.6C652.8 738.84 652.8 748.07 652.8 757.33C558.23 757.33 463.64 757.33 369.07 757.33C369.07 748.07 369.07 738.84 369.07 729.6Z" /></g></svg>